<svg width="232" height="86" viewBox="0 0 232 86" fill="none" xmlns="http://www.w3.org/2000/svg">
<path d="M14.36 21.8L42.04 5.8C43.8533 4.73333 45.4533 4.6 46.84 5.4C48.28 6.2 49 7.66666 49 9.8V61L42.04 65V13.8L31.64 19.8V71L24.68 75V23.8L14.36 29.8V81L7.4 85V33.8C7.4 32.36 7.72 30.8667 8.36 29.32C9 27.72 9.85333 26.2533 10.92 24.92C11.9867 23.5333 13.1333 22.4933 14.36 21.8ZM42.04 13.8V65L35.08 61V9.8L42.04 13.8ZM24.68 23.8V75L17.8 71V19.8L24.68 23.8ZM46.84 5.4C45.4533 4.6 43.8533 4.73333 42.04 5.8L14.36 21.8C13.1333 22.4933 11.9867 23.5333 10.92 24.92C9.85333 26.2533 9 27.72 8.36 29.32C7.72 30.8667 7.4 32.36 7.4 33.8V85L0.44 81V29.8C0.44 28.36 0.76 26.8667 1.4 25.32C2.04 23.72 2.89333 22.2533 3.96 20.92C5.02667 19.5333 6.17333 18.4933 7.4 17.8L35.08 1.79999C36.9467 0.733332 38.5733 0.599999 39.96 1.39999L46.84 5.4ZM74.8688 37C74.8688 35.56 75.1888 34.0667 75.8288 32.52C76.4688 30.92 77.3221 29.4533 78.3888 28.12C79.4554 26.7333 80.6021 25.6933 81.8288 25L106.069 11V19L81.8288 33V50.6L106.069 36.6V44.6L81.8288 58.6V76.2L106.069 62.2V70.2L81.8288 84.2C79.9621 85.2667 78.3354 85.4 76.9488 84.6C75.5621 83.8 74.8688 82.3333 74.8688 80.2V37ZM106.069 62.2L81.8288 76.2L74.8688 72.2L99.1088 58.2L106.069 62.2ZM106.069 36.6L81.8288 50.6L74.8688 46.6L99.1088 32.6L106.069 36.6ZM106.069 11L81.8288 25C80.6021 25.6933 79.4554 26.7333 78.3888 28.12C77.3221 29.4533 76.4688 30.92 75.8288 32.52C75.1888 34.0667 74.8688 35.56 74.8688 37V80.2C74.8688 82.3333 75.5621 83.8 76.9488 84.6L69.9888 80.6C68.6021 79.8 67.9088 78.3333 67.9088 76.2V33C67.9088 31.56 68.2288 30.0667 68.8688 28.52C69.5088 26.92 70.3621 25.4533 71.4288 24.12C72.4954 22.7333 73.6421 21.6933 74.8688 21L99.1088 6.99999L106.069 11ZM149.227 19C151.094 17.9333 152.72 17.8 154.107 18.6C155.494 19.4 156.187 20.8667 156.187 23V63L166.587 57V9L173.547 5V61L156.187 71C154.374 72.0667 152.747 72.2 151.307 71.4C149.92 70.6 149.227 69.1333 149.227 67V27L138.907 33V81L131.947 85V29L149.227 19ZM173.547 5L166.587 9L159.627 5L166.587 1L173.547 5ZM166.587 9V57L159.627 53V5L166.587 9ZM166.587 57L156.187 63L149.227 59L159.627 53L166.587 57ZM149.227 27V67C149.227 69.1333 149.92 70.6 151.307 71.4L144.427 67.4C143.04 66.6 142.347 65.1333 142.347 63V23L149.227 27ZM154.107 18.6C152.72 17.8 151.094 17.9333 149.227 19L131.947 29L124.987 25L142.347 15C144.16 13.9333 145.76 13.8 147.147 14.6L154.107 18.6ZM131.947 29V85L124.987 81V25L131.947 29ZM211.896 61.8L206.376 65C204.509 66.0667 202.882 66.2 201.496 65.4C200.109 64.6 199.416 63.1333 199.416 61V29L206.376 25V57L224.376 46.6V14.6L231.256 10.6V42.6C231.256 43.9867 230.936 45.48 230.296 47.08C229.656 48.68 228.802 50.1733 227.736 51.56C226.722 52.8933 225.602 53.9067 224.376 54.6L218.776 57.8V81.8L211.896 85.8V61.8ZM211.896 61.8V85.8L204.936 81.8V57.8L211.896 61.8ZM231.256 10.6L224.376 14.6L217.416 10.6L224.376 6.59999L231.256 10.6ZM224.376 14.6V46.6L217.416 42.6V10.6L224.376 14.6ZM224.376 46.6L206.376 57L199.416 53L217.416 42.6L224.376 46.6ZM206.376 25L199.416 29L192.456 25L199.416 21L206.376 25ZM199.416 29V61C199.416 63.1333 200.109 64.6 201.496 65.4L194.536 61.4C193.149 60.6 192.456 59.1333 192.456 57V25L199.416 29Z" fill="#F4C96D"/>
</svg>
