<svg width="254" height="113" viewBox="0 0 254 113" fill="none" xmlns="http://www.w3.org/2000/svg">
<path d="M18.4 29.04L54.384 8.23999C56.7414 6.85333 58.8214 6.68 60.624 7.71999C62.496 8.75999 63.432 10.6667 63.432 13.44V80L54.384 85.2V18.64L40.864 26.44V93L31.816 98.2V31.64L18.4 39.44V106L9.35203 111.2V44.64C9.35203 42.768 9.76803 40.8267 10.6 38.816C11.432 36.736 12.5414 34.8293 13.928 33.096C15.3147 31.2933 16.8054 29.9413 18.4 29.04ZM54.384 18.64V85.2L45.336 80V13.44L54.384 18.64ZM31.816 31.64V98.2L22.872 93V26.44L31.816 31.64ZM60.624 7.71999C58.8214 6.68 56.7414 6.85333 54.384 8.23999L18.4 29.04C16.8054 29.9413 15.3147 31.2933 13.928 33.096C12.5414 34.8293 11.432 36.736 10.6 38.816C9.76803 40.8267 9.35203 42.768 9.35203 44.64V111.2L0.304031 106V39.44C0.304031 37.568 0.720031 35.6267 1.55203 33.616C2.38403 31.536 3.49336 29.6293 4.88003 27.896C6.2667 26.0933 7.75737 24.7413 9.35203 23.84L45.336 3.03999C47.7627 1.65333 49.8774 1.48 51.68 2.51999L60.624 7.71999ZM81.4614 48.8C81.4614 46.928 81.8774 44.9867 82.7094 42.976C83.5414 40.896 84.6507 38.9893 86.0374 37.256C87.4241 35.4533 88.9147 34.1013 90.5094 33.2L122.021 15V25.4L90.5094 43.6V66.48L122.021 48.28V58.68L90.5094 76.88V99.76L122.021 81.56V91.96L90.5094 110.16C88.0827 111.547 85.9681 111.72 84.1654 110.68C82.3627 109.64 81.4614 107.733 81.4614 104.96V48.8ZM122.021 81.56L90.5094 99.76L81.4614 94.56L112.973 76.36L122.021 81.56ZM122.021 48.28L90.5094 66.48L81.4614 61.28L112.973 43.08L122.021 48.28ZM122.021 15L90.5094 33.2C88.9147 34.1013 87.4241 35.4533 86.0374 37.256C84.6507 38.9893 83.5414 40.896 82.7094 42.976C81.8774 44.9867 81.4614 46.928 81.4614 48.8V104.96C81.4614 107.733 82.3627 109.64 84.1654 110.68L75.1174 105.48C73.3147 104.44 72.4134 102.533 72.4134 99.76V43.6C72.4134 41.728 72.8294 39.7867 73.6614 37.776C74.4934 35.696 75.6027 33.7893 76.9894 32.056C78.3761 30.2533 79.8667 28.9013 81.4614 28L112.973 9.79999L122.021 15ZM162.527 25.4C164.954 24.0133 167.068 23.84 168.871 24.88C170.674 25.92 171.575 27.8267 171.575 30.6V82.6L185.095 74.8V12.4L194.143 7.2V80L171.575 93C169.218 94.3867 167.103 94.56 165.231 93.52C163.428 92.48 162.527 90.5733 162.527 87.8V35.8L149.111 43.6V106L140.063 111.2V38.4L162.527 25.4ZM194.143 7.2L185.095 12.4L176.047 7.2L185.095 2L194.143 7.2ZM185.095 12.4V74.8L176.047 69.6V7.2L185.095 12.4ZM185.095 74.8L171.575 82.6L162.527 77.4L176.047 69.6L185.095 74.8ZM162.527 35.8V87.8C162.527 90.5733 163.428 92.48 165.231 93.52L156.287 88.32C154.484 87.28 153.583 85.3733 153.583 82.6V30.6L162.527 35.8ZM168.871 24.88C167.068 23.84 164.954 24.0133 162.527 25.4L140.063 38.4L131.015 33.2L153.583 20.2C155.94 18.8133 158.02 18.64 159.823 19.68L168.871 24.88ZM140.063 38.4V111.2L131.015 106V33.2L140.063 38.4ZM228.396 81.04L221.22 85.2C218.794 86.5867 216.679 86.76 214.876 85.72C213.074 84.68 212.172 82.7733 212.172 80V38.4L221.22 33.2V74.8L244.62 61.28V19.68L253.564 14.48V56.08C253.564 57.8827 253.148 59.824 252.316 61.904C251.484 63.984 250.375 65.9253 248.988 67.728C247.671 69.4613 246.215 70.7787 244.62 71.68L237.34 75.84V107.04L228.396 112.24V81.04ZM228.396 81.04V112.24L219.348 107.04V75.84L228.396 81.04ZM253.564 14.48L244.62 19.68L235.572 14.48L244.62 9.27999L253.564 14.48ZM244.62 19.68V61.28L235.572 56.08V14.48L244.62 19.68ZM244.62 61.28L221.22 74.8L212.172 69.6L235.572 56.08L244.62 61.28ZM221.22 33.2L212.172 38.4L203.124 33.2L212.172 28L221.22 33.2ZM212.172 38.4V80C212.172 82.7733 213.074 84.68 214.876 85.72L205.828 80.52C204.026 79.48 203.124 77.5733 203.124 74.8V33.2L212.172 38.4Z" fill="#F4C96D"/>
</svg>
