<svg width="274" height="105" viewBox="0 0 274 105" fill="none" xmlns="http://www.w3.org/2000/svg">
<path d="M41.9079 7.51999C44.2652 6.13333 46.3452 5.95999 48.1479 6.99999C49.9505 8.04 50.8518 9.94666 50.8518 12.72V27.28C50.8518 29.0827 50.4359 31.024 49.6039 33.104C48.7719 35.184 47.6625 37.1253 46.2759 38.928C44.9585 40.6613 43.5025 41.9787 41.9079 42.88C44.2652 41.4933 46.3452 41.32 48.1479 42.36C49.9505 43.4 50.8518 45.3067 50.8518 48.08V68.88C50.8518 70.752 50.4359 72.728 49.6039 74.808C48.7719 76.8187 47.6625 78.7253 46.2759 80.528C44.9585 82.2613 43.5025 83.5787 41.9079 84.48L27.4519 92.8C25.0945 94.1867 23.0145 94.36 21.2119 93.32C19.4092 92.28 18.5079 90.3733 18.5079 87.6V98L9.45985 103.2V26.24L41.9079 7.51999ZM41.9079 42.88V17.92L18.5079 31.44V56.4L41.9079 42.88ZM41.9079 53.28L18.5079 66.8V87.6L41.9079 74.08V53.28ZM18.5079 87.6C18.5079 90.3733 19.4092 92.28 21.2119 93.32L12.1639 88.12C10.3612 87.08 9.45985 85.1733 9.45985 82.4L18.5079 87.6ZM48.1479 42.36C46.3452 41.32 44.2652 41.4933 41.9079 42.88L32.8599 37.68C35.2172 36.2933 37.3319 36.12 39.2039 37.16L48.1479 42.36ZM41.9079 53.28V74.08L32.8599 68.88V48.08L41.9079 53.28ZM41.9079 74.08L18.5079 87.6L9.45985 82.4L32.8599 68.88L41.9079 74.08ZM41.9079 17.92V42.88L32.8599 37.68V12.72L41.9079 17.92ZM41.9079 42.88L18.5079 56.4L9.45985 51.2L32.8599 37.68L41.9079 42.88ZM48.1479 6.99999C46.3452 5.95999 44.2652 6.13333 41.9079 7.51999L9.45985 26.24L0.41185 21.04L32.8599 2.32C35.2172 0.933329 37.3319 0.759994 39.2039 1.79999L48.1479 6.99999ZM9.45985 26.24V103.2L0.41185 98V21.04L9.45985 26.24ZM93.6235 21.04L116.087 8.03999C118.445 6.65333 120.525 6.47999 122.327 7.51999C124.199 8.56 125.135 10.4667 125.135 13.24V73.56C125.135 75.3627 124.685 77.304 123.783 79.384C122.951 81.464 121.842 83.4053 120.455 85.208C119.138 86.9413 117.682 88.2587 116.087 89.16L93.6235 102.16C91.1968 103.547 89.0821 103.72 87.2795 102.68C85.4768 101.64 84.5755 99.7333 84.5755 96.96V36.64C84.5755 34.768 84.9915 32.8267 85.8235 30.816C86.6555 28.736 87.7648 26.8293 89.1515 25.096C90.5381 23.2933 92.0288 21.9413 93.6235 21.04ZM93.6235 91.76L116.087 78.76V18.44L93.6235 31.44V91.76ZM116.087 18.44V78.76L107.039 73.56V13.24L116.087 18.44ZM116.087 78.76L93.6235 91.76L84.5755 86.56L107.039 73.56L116.087 78.76ZM122.431 7.51999C120.559 6.47999 118.445 6.65333 116.087 8.03999L93.6235 21.04C92.0288 21.9413 90.5381 23.2933 89.1515 25.096C87.7648 26.8293 86.6555 28.736 85.8235 30.816C84.9915 32.8267 84.5755 34.768 84.5755 36.64V96.96C84.5755 99.7333 85.4768 101.64 87.2795 102.68L78.2315 97.48C76.4288 96.44 75.5275 94.5333 75.5275 91.76V31.44C75.5275 29.568 75.9435 27.6267 76.7755 25.616C77.6075 23.536 78.7168 21.6293 80.1035 19.896C81.4901 18.0933 82.9808 16.7413 84.5755 15.84L107.039 2.84C109.466 1.45333 111.581 1.28 113.383 2.32L122.431 7.51999ZM158.777 30.4L167.825 25.2V56.4L190.289 43.4V12.2L199.337 6.99999V27.8C199.337 29.6027 198.886 31.544 197.985 33.624C197.153 35.704 196.044 37.6453 194.657 39.448C193.34 41.1813 191.884 42.4987 190.289 43.4C192.646 42.0133 194.726 41.84 196.529 42.88C198.401 43.92 199.337 45.8267 199.337 48.6V79.8L190.289 85V53.8L167.825 66.8V98L158.777 103.2V30.4ZM190.289 53.8V85L181.241 79.8V48.6L190.289 53.8ZM196.633 42.88C194.761 41.84 192.646 42.0133 190.289 43.4L181.241 38.2C183.668 36.8133 185.782 36.64 187.585 37.68L196.633 42.88ZM199.337 6.99999L190.289 12.2L181.241 6.99999L190.289 1.79999L199.337 6.99999ZM190.289 12.2V43.4L181.241 38.2V6.99999L190.289 12.2ZM190.289 43.4L167.825 56.4L158.777 51.2L181.241 38.2L190.289 43.4ZM167.825 25.2L158.777 30.4L149.729 25.2L158.777 20L167.825 25.2ZM158.777 30.4V103.2L149.729 98V25.2L158.777 30.4ZM242.027 21.04L264.491 8.03999C266.848 6.65333 268.928 6.47999 270.731 7.51999C272.603 8.56 273.539 10.4667 273.539 13.24V79.8L264.491 85V64.2L242.027 77.2V98L232.979 103.2V36.64C232.979 34.768 233.395 32.8267 234.227 30.816C235.059 28.736 236.168 26.8293 237.555 25.096C238.941 23.2933 240.432 21.9413 242.027 21.04ZM264.491 53.8V18.44L242.027 31.44V66.8L264.491 53.8ZM264.491 64.2V85L255.443 79.8V59L264.491 64.2ZM264.491 18.44V53.8L255.443 48.6V13.24L264.491 18.44ZM264.491 53.8L242.027 66.8L232.979 61.6L255.443 48.6L264.491 53.8ZM270.835 7.51999C268.963 6.47999 266.848 6.65333 264.491 8.03999L242.027 21.04C240.432 21.9413 238.941 23.2933 237.555 25.096C236.168 26.8293 235.059 28.736 234.227 30.816C233.395 32.8267 232.979 34.768 232.979 36.64V103.2L223.931 98V31.44C223.931 29.568 224.347 27.6267 225.179 25.616C226.011 23.536 227.12 21.6293 228.507 19.896C229.893 18.0933 231.384 16.7413 232.979 15.84L255.443 2.84C257.869 1.45333 259.984 1.28 261.787 2.32L270.835 7.51999Z" fill="#F4C96D"/>
</svg>
